<svg width="40" height="41" viewBox="0 0 40 41" fill="none" xmlns="http://www.w3.org/2000/svg">
<g filter="url(#filter0_d_1_2509)">
<circle cx="15.5172" cy="15.5172" r="15.5172" transform="matrix(1 0 0 -1 4.5 33.5688)" fill="white"/>
</g>
<path d="M12.7759 17.0172H27.2586V23.2241C27.2586 23.7729 27.0407 24.2991 26.6526 24.687C26.2647 25.0751 25.7384 25.2931 25.1897 25.2931H14.8448C14.2961 25.2931 13.7698 25.0751 13.3819 24.687C12.9939 24.2991 12.7759 23.7729 12.7759 23.2241V17.0172Z" fill="#2572FF"/>
<path d="M27.2586 14.4309V15.9826H12.7759V14.4309C12.7759 13.8822 12.9939 13.3559 13.3819 12.968C13.7698 12.5799 14.2961 12.3619 14.8448 12.3619H15.3621V14.4309C15.3621 14.6157 15.4607 14.7865 15.6207 14.8789C15.7807 14.9712 15.9779 14.9712 16.1379 14.8789C16.298 14.7865 16.3966 14.6157 16.3966 14.4309V12.3619H23.638V14.4309C23.638 14.6157 23.7366 14.7865 23.8966 14.8789C24.0566 14.9712 24.2538 14.9712 24.4138 14.8789C24.5738 14.7865 24.6724 14.6157 24.6724 14.4309V12.3619H25.1897C25.7384 12.3619 26.2647 12.5799 26.6526 12.968C27.0407 13.3559 27.2586 13.8822 27.2586 14.4309Z" fill="#2572FF"/>
<path d="M24.6724 11.3275V12.362H23.6379V11.3275C23.6379 11.1427 23.7365 10.9719 23.8966 10.8796C24.0566 10.7872 24.2538 10.7872 24.4138 10.8796C24.5738 10.9719 24.6724 11.1427 24.6724 11.3275Z" fill="#2572FF"/>
<path d="M16.3965 11.3275V12.362H15.3621V11.3275C15.3621 11.1427 15.4607 10.9719 15.6207 10.8796C15.7807 10.7872 15.9779 10.7872 16.1379 10.8796C16.2979 10.9719 16.3965 11.1427 16.3965 11.3275Z" fill="#2572FF"/>
<defs>
<filter id="filter0_d_1_2509" x="0.189655" y="0.810286" width="39.6551" height="39.6551" filterUnits="userSpaceOnUse" color-interpolation-filters="sRGB">
<feFlood flood-opacity="0" result="BackgroundImageFix"/>
<feColorMatrix in="SourceAlpha" type="matrix" values="0 0 0 0 0 0 0 0 0 0 0 0 0 0 0 0 0 0 127 0" result="hardAlpha"/>
<feOffset dy="2.58621"/>
<feGaussianBlur stdDeviation="2.15517"/>
<feComposite in2="hardAlpha" operator="out"/>
<feColorMatrix type="matrix" values="0 0 0 0 0.267188 0 0 0 0 0.411231 0 0 0 0 0.675 0 0 0 0.16 0"/>
<feBlend mode="normal" in2="BackgroundImageFix" result="effect1_dropShadow_1_2509"/>
<feBlend mode="normal" in="SourceGraphic" in2="effect1_dropShadow_1_2509" result="shape"/>
</filter>
</defs>
</svg>
