<svg width="267" height="54" viewBox="0 0 267 54" fill="none" xmlns="http://www.w3.org/2000/svg">
<g clip-path="url(#clip0_1_2492)">
<path d="M15.8553 26.0649L31.2135 0.716431H0.5L15.8553 26.0649Z" fill="#2573FF"/>
<path d="M39.1245 0.716431L19.5215 34.6112L25.7762 45.1736L35.7605 27.6226L46.4276 45.1736L71.4945 0.716431H59.671L44.4836 27.0984L40.0171 20.1607L50.8431 0.716431H39.1245Z" fill="#2573FF"/>
<path d="M78.3553 32.0213H68.3636C69.0349 29.2962 70.6937 27.9929 73.4186 27.9929C76.3017 27.9929 78.0393 29.3752 78.3553 32.0213ZM82.6996 34.8253V34.0354C82.6996 27.9535 79.2242 24.4386 73.3397 24.4386C67.6526 24.4386 63.7429 28.5854 63.7429 34.2723C63.7429 40.2358 67.4947 44.1061 73.3397 44.1061C77.447 44.1061 80.4485 42.3289 82.5021 38.6561L78.9873 36.6815C77.6445 39.209 75.9462 40.2753 73.2607 40.2753C70.2198 40.2753 68.2846 38.2612 68.0871 34.8253H82.6996ZM91.2168 13.4595H87.0305V43.3558H91.2168V40.9861C92.7176 43.0793 94.6918 44.1061 97.2597 44.1061C102.354 44.1061 105.592 40.4333 105.592 34.1934C105.592 28.3089 102.236 24.4386 97.4176 24.4386C94.4157 24.4386 92.2042 25.7418 91.2168 28.0719V13.4595ZM91.0983 34.1539C91.0983 30.323 92.994 28.1509 96.1139 28.1509C99.273 28.1509 101.208 30.4415 101.208 34.3118C101.208 38.2216 99.3914 40.3938 96.2323 40.3938C93.3099 40.3938 91.0983 38.0241 91.0983 34.1539ZM135.055 39.5249C137.82 36.7604 139.321 33.1665 139.321 29.2568C139.321 25.2679 137.78 21.595 134.897 18.791C132.054 15.987 128.302 14.4863 124.235 14.4863C120.167 14.4863 116.375 15.987 113.532 18.791C110.649 21.595 109.148 25.2679 109.148 29.2568C109.148 33.2455 110.649 36.9184 113.532 39.7224C116.336 42.4869 120.206 44.0271 123.997 44.0271C126.762 44.0271 129.329 43.3953 131.896 42.013L135.568 46.0018H141.059L135.055 39.5249ZM129.329 33.2455H123.76L128.816 38.6955C127.394 39.4064 125.972 39.7619 124.353 39.7619C118.35 39.7619 113.927 35.1017 113.927 29.2568C113.927 26.4132 114.954 23.8067 116.928 21.7925C118.902 19.7784 121.509 18.6726 124.235 18.6726C126.96 18.6726 129.566 19.7784 131.541 21.7925C133.516 23.8067 134.542 26.4132 134.542 29.2568C134.542 31.9028 133.752 34.0748 132.054 36.168L129.329 33.2455ZM179.523 29.4147L182.644 43.3558H186.908L180.076 14.0124L171.941 31.7448C171.507 32.7322 170.874 33.9959 170.321 35.5756C169.532 33.522 169.019 32.2582 168.782 31.7448L160.448 14.0124L153.774 43.3558H158L161.04 29.4542C161.317 28.1904 161.514 26.8871 161.554 25.5443C161.91 26.8082 162.384 27.9929 162.936 29.1382L170.321 44.5011L177.706 29.4542C178.339 28.1509 178.773 26.8871 179.01 25.5443C179.286 27.6376 179.405 28.9013 179.523 29.4147ZM203.506 32.0213H193.515C194.186 29.2962 195.845 27.9929 198.57 27.9929C201.453 27.9929 203.191 29.3752 203.506 32.0213ZM207.851 34.8253V34.0354C207.851 27.9535 204.376 24.4386 198.491 24.4386C192.804 24.4386 188.894 28.5854 188.894 34.2723C188.894 40.2358 192.647 44.1061 198.491 44.1061C202.599 44.1061 205.6 42.3289 207.653 38.6561L204.139 36.6815C202.796 39.209 201.097 40.2753 198.412 40.2753C195.371 40.2753 193.436 38.2612 193.239 34.8253H207.851ZM225.215 13.4595V28.0719C224.227 25.7418 222.055 24.4386 219.054 24.4386C214.236 24.4386 210.839 28.3089 210.839 34.1934C210.839 40.4333 214.078 44.1061 219.172 44.1061C221.739 44.1061 223.714 43.0793 225.215 40.9861V43.3558H229.401V13.4595H225.215ZM225.334 34.1539C225.334 38.0241 223.161 40.3938 220.238 40.3938C217.079 40.3938 215.223 38.2216 215.223 34.3118C215.223 30.4415 217.158 28.1509 220.318 28.1509C223.438 28.1509 225.334 30.323 225.334 34.1539ZM235.365 43.3558H239.552V25.0704H235.365V43.3558ZM234.813 17.1718C234.813 18.5936 235.998 19.8179 237.459 19.8179C238.92 19.8179 240.065 18.6726 240.065 17.1718C240.065 15.6711 238.92 14.5653 237.459 14.5653C235.998 14.5653 234.813 15.7501 234.813 17.1718ZM258.656 34.1539C258.656 38.0241 256.444 40.3938 253.561 40.3938C250.401 40.3938 248.545 38.2216 248.545 34.3118C248.545 30.4415 250.48 28.1509 253.639 28.1509C256.76 28.1509 258.656 30.323 258.656 34.1539ZM262.723 43.3558V25.0704H258.537V28.0719C257.55 25.7418 255.377 24.4386 252.376 24.4386C247.558 24.4386 244.161 28.3089 244.161 34.1934C244.161 40.4333 247.4 44.1061 252.495 44.1061C255.062 44.1061 257.036 43.0793 258.537 40.9861V43.3558H262.723Z" fill="#2573FF"/>
</g>
<defs>
<clipPath id="clip0_1_2492">
<rect width="266" height="52.636" fill="white" transform="translate(0.5 0.716431)"/>
</clipPath>
</defs>
</svg>
